<?xml version="1.0" encoding="UTF-8"?>
<!DOCTYPE svg PUBLIC "-//W3C//DTD SVG 1.1//EN" "http://www.w3.org/Graphics/SVG/1.1/DTD/svg11.dtd">
<svg xmlns="http://www.w3.org/2000/svg" version="1.1" width="512px" height="512px" style="shape-rendering:geometricPrecision; text-rendering:geometricPrecision; image-rendering:optimizeQuality; fill-rule:evenodd; clip-rule:evenodd" xmlns:xlink="http://www.w3.org/1999/xlink">
<g><path style="opacity:0.983" fill="#020101" d="M 198.5,-0.5 C 203.5,-0.5 208.5,-0.5 213.5,-0.5C 228.095,4.07167 239.262,13.0717 247,26.5C 254.451,13.1972 265.285,4.19716 279.5,-0.5C 284.833,-0.5 290.167,-0.5 295.5,-0.5C 314.599,4.10103 326.099,16.101 330,35.5C 332.384,53.582 328.884,70.4153 319.5,86C 342.668,84.4196 365.668,85.7529 388.5,90C 409.003,94.1647 426.503,103.665 441,118.5C 442.947,122.495 442.447,126.162 439.5,129.5C 436.555,130.468 433.555,130.634 430.5,130C 418.028,117.261 403.028,108.928 385.5,105C 364.464,101.456 343.464,100.623 322.5,102.5C 317.016,102.364 311.682,103.197 306.5,105C 289.882,123.89 270.382,139.057 248,150.5C 242.965,167.607 242.131,184.941 245.5,202.5C 262.086,201.353 278.086,197.687 293.5,191.5C 312.64,184.359 327.974,172.359 339.5,155.5C 342.396,152.221 345.73,151.721 349.5,154C 358.315,167.816 369.981,178.483 384.5,186C 403.393,195.556 423.393,201.056 444.5,202.5C 446.287,190.56 446.787,178.56 446,166.5C 445.202,160.473 443.702,154.64 441.5,149C 442.313,145.858 443.98,143.358 446.5,141.5C 450.287,140.814 453.454,141.814 456,144.5C 460.158,155.947 462.325,167.78 462.5,180C 461.218,192.854 459.884,205.687 458.5,218.5C 478.618,225.735 485.785,239.735 480,260.5C 475.816,269.518 468.982,275.518 459.5,278.5C 458.386,279.723 458.219,281.056 459,282.5C 473.859,285.037 485.193,292.704 493,305.5C 497.752,313.675 501.419,322.341 504,331.5C 506.217,341.701 508.717,351.701 511.5,361.5C 511.5,364.5 511.5,367.5 511.5,370.5C 507.716,373.424 503.383,374.257 498.5,373C 474.069,367.46 453.736,355.294 437.5,336.5C 433.244,340.253 428.577,343.42 423.5,346C 433.724,349.444 443.058,354.444 451.5,361C 457.534,366.564 461.367,373.398 463,381.5C 463.667,402.833 463.667,424.167 463,445.5C 462.705,477.142 448.205,499.142 419.5,511.5C 300.5,511.5 181.5,511.5 62.5,511.5C 38.9675,502.503 24.8009,485.503 20,460.5C 17.28,433.528 16.9467,406.528 19,379.5C 21.3589,371.289 25.8589,364.456 32.5,359C 40.3929,353.886 48.7262,349.553 57.5,346C 41.8357,336.997 31.3357,323.831 26,306.5C 24.3591,297.168 22.8591,287.834 21.5,278.5C 10.0146,274.123 2.68127,266.123 -0.5,254.5C -0.5,250.5 -0.5,246.5 -0.5,242.5C 2.46719,229.533 10.4672,221.533 23.5,218.5C 23.9498,210.161 24.1165,201.828 24,193.5C 12.0442,176.778 3.8775,158.445 -0.5,138.5C -0.5,131.833 -0.5,125.167 -0.5,118.5C 7.9809,98.086 23.3142,89.9193 45.5,94C 51.5454,95.3464 57.0454,97.8464 62,101.5C 97.0746,88.8849 133.241,81.3849 170.5,79C 159.372,57.476 159.872,36.3093 172,15.5C 179.129,7.19189 187.963,1.85856 198.5,-0.5 Z"/></g>
<g><path style="opacity:1" fill="#ea6060" d="M 201.5,14.5 C 214.24,14.4536 224.073,19.787 231,30.5C 235.113,36.3908 238.446,42.7242 241,49.5C 243.917,51.3933 247.084,51.8933 250.5,51C 254.609,43.2839 259.109,35.7839 264,28.5C 276.933,11.8913 291.433,10.2247 307.5,23.5C 315.456,33.6032 317.623,44.9365 314,57.5C 308.814,77.3502 298.647,94.1836 283.5,108C 272.714,117.56 261.047,125.894 248.5,133C 226.638,123.507 208.471,109.007 194,89.5C 180.327,71.8149 175.993,52.1482 181,30.5C 185.748,22.3893 192.581,17.0559 201.5,14.5 Z"/></g>
<g><path style="opacity:1" fill="#3b5858" d="M 132.5,203.5 C 116.173,184.842 105.673,163.175 101,138.5C 99.8666,128.015 100.533,117.682 103,107.5C 104.045,106.627 104.878,105.627 105.5,104.5C 129.702,97.7443 154.369,94.5776 179.5,95C 187.055,105.561 195.722,115.228 205.5,124C 215.02,131.255 224.687,138.255 234.5,145C 228.879,160.695 227.045,176.861 229,193.5C 230.237,197.06 230.737,200.727 230.5,204.5C 222.119,205.642 214.452,203.808 207.5,199C 198.637,193.809 190.637,187.476 183.5,180C 178.907,176.449 174.74,176.949 171,181.5C 171.803,195.366 165.303,203.199 151.5,205C 145.039,205.849 138.706,205.349 132.5,203.5 Z"/></g>
<g><path style="opacity:1" fill="#fab042" d="M 322.5,102.5 C 343.464,100.623 364.464,101.456 385.5,105C 403.028,108.928 418.028,117.261 430.5,130C 433.555,130.634 436.555,130.468 439.5,129.5C 442.839,132.835 445.172,136.835 446.5,141.5C 443.98,143.358 442.313,145.858 441.5,149C 443.702,154.64 445.202,160.473 446,166.5C 446.787,178.56 446.287,190.56 444.5,202.5C 423.393,201.056 403.393,195.556 384.5,186C 369.981,178.483 358.315,167.816 349.5,154C 345.73,151.721 342.396,152.221 339.5,155.5C 327.974,172.359 312.64,184.359 293.5,191.5C 295.358,164.385 303.525,139.385 318,116.5C 321.799,111.699 325.966,107.199 330.5,103C 327.854,102.503 325.187,102.336 322.5,102.5 Z"/></g>
<g><path style="opacity:1" fill="#f79601" d="M 322.5,102.5 C 325.187,102.336 327.854,102.503 330.5,103C 325.966,107.199 321.799,111.699 318,116.5C 303.525,139.385 295.358,164.385 293.5,191.5C 278.086,197.687 262.086,201.353 245.5,202.5C 242.131,184.941 242.965,167.607 248,150.5C 270.382,139.057 289.882,123.89 306.5,105C 311.682,103.197 317.016,102.364 322.5,102.5 Z"/></g>
<g><path style="opacity:1" fill="#384848" d="M 105.5,104.5 C 104.878,105.627 104.045,106.627 103,107.5C 100.533,117.682 99.8666,128.015 101,138.5C 105.673,163.175 116.173,184.842 132.5,203.5C 118.572,199.37 105.905,192.87 94.5,184C 87.7801,180.704 83.2801,182.537 81,189.5C 79.0616,192.106 76.5616,193.939 73.5,195C 56.912,197.654 43.412,192.487 33,179.5C 21.3402,161.858 15.3402,142.524 15,121.5C 20.6485,110.761 29.4818,106.594 41.5,109C 48.2659,111.472 54.7659,114.305 61,117.5C 75.7413,112.864 90.5747,108.531 105.5,104.5 Z"/></g>
<g><path style="opacity:1" fill="#facea2" d="M 305.5,328.5 C 302.124,325.122 298.457,322.122 294.5,319.5C 295.994,315.975 295.661,312.642 293.5,309.5C 291.837,299.584 291.171,289.584 291.5,279.5C 298.167,275.5 298.167,271.5 291.5,267.5C 291.5,262.833 291.5,258.167 291.5,253.5C 298.7,255.644 303.2,252.977 305,245.5C 306.948,238.135 305.115,231.968 299.5,227C 296.739,226.278 294.073,226.445 291.5,227.5C 291.5,221.167 291.5,214.833 291.5,208.5C 312.329,201.496 330.163,189.83 345,173.5C 365.139,194.658 389.639,208.158 418.5,214C 426.68,216.252 435.014,217.419 443.5,217.5C 443.841,243.52 443.341,269.52 442,295.5C 437.198,318.969 423.031,333.136 399.5,338C 373.177,339.664 346.844,339.831 320.5,338.5C 319.153,332.655 315.653,328.988 310,327.5C 308.467,327.773 306.967,328.106 305.5,328.5 Z"/></g>
<g><path style="opacity:1" fill="#facea1" d="M 220.5,219.5 C 222.167,220.167 223.833,220.833 225.5,221.5C 212.889,228.386 207.389,239.052 209,253.5C 211.79,266.291 219.456,274.624 232,278.5C 232.5,284.825 232.666,291.158 232.5,297.5C 205.826,295.922 182.159,303.422 161.5,320C 156.305,325.554 151.972,331.72 148.5,338.5C 128.004,339.828 107.671,339.828 87.5,338.5C 90.5184,338.665 93.5184,338.498 96.5,338C 90.5148,329.051 86.6815,319.218 85,308.5C 82.9663,289.889 82.133,271.223 82.5,252.5C 88.9953,255.68 93.4953,253.68 96,246.5C 97.1102,240.574 96.4436,234.908 94,229.5C 91.0164,226.9 87.5164,225.9 83.5,226.5C 83.5,220.167 83.5,213.833 83.5,207.5C 86.1216,205.218 88.7883,202.885 91.5,200.5C 107.538,211.512 125.204,218.179 144.5,220.5C 161.271,220.949 174.271,214.282 183.5,200.5C 194.317,209.742 206.651,216.076 220.5,219.5 Z"/></g>
<g><path style="opacity:1" fill="#fcb781" d="M 83.5,207.5 C 83.5,213.833 83.5,220.167 83.5,226.5C 75.9237,234.976 75.5904,243.643 82.5,252.5C 82.133,271.223 82.9663,289.889 85,308.5C 86.6815,319.218 90.5148,329.051 96.5,338C 93.5184,338.498 90.5184,338.665 87.5,338.5C 63.1458,335.987 47.3125,322.987 40,299.5C 37.7112,275.549 37.0445,251.549 38,227.5C 38.0235,219.711 38.8569,212.044 40.5,204.5C 54.4343,211.219 68.7676,212.219 83.5,207.5 Z"/></g>
<g><path style="opacity:1" fill="#fcb781" d="M 291.5,208.5 C 291.5,214.833 291.5,221.167 291.5,227.5C 284.889,236.138 284.889,244.804 291.5,253.5C 291.5,258.167 291.5,262.833 291.5,267.5C 280.935,263.142 270.601,263.642 260.5,269C 257.512,273.048 258.178,276.382 262.5,279C 272.078,283.492 281.745,283.659 291.5,279.5C 291.171,289.584 291.837,299.584 293.5,309.5C 279.247,302.853 264.247,298.853 248.5,297.5C 246.643,271.213 246.143,244.879 247,218.5C 261.968,215.873 276.801,212.539 291.5,208.5 Z"/></g>
<g><path style="opacity:1" fill="#6c5946" d="M 220.5,219.5 C 222.857,219.337 225.19,219.503 227.5,220C 226.956,220.717 226.289,221.217 225.5,221.5C 223.833,220.833 222.167,220.167 220.5,219.5 Z"/></g>
<g><path style="opacity:1" fill="#080604" d="M 83.5,226.5 C 87.5164,225.9 91.0164,226.9 94,229.5C 96.4436,234.908 97.1102,240.574 96,246.5C 93.4953,253.68 88.9953,255.68 82.5,252.5C 75.5904,243.643 75.9237,234.976 83.5,226.5 Z"/></g>
<g><path style="opacity:1" fill="#070504" d="M 182.5,226.5 C 186.192,225.971 189.358,226.971 192,229.5C 196.92,237.55 196.42,245.216 190.5,252.5C 183.772,255.998 179.272,253.998 177,246.5C 176.333,242.167 176.333,237.833 177,233.5C 177.967,230.379 179.8,228.046 182.5,226.5 Z"/></g>
<g><path style="opacity:1" fill="#060403" d="M 291.5,253.5 C 284.889,244.804 284.889,236.138 291.5,227.5C 294.073,226.445 296.739,226.278 299.5,227C 305.115,231.968 306.948,238.135 305,245.5C 303.2,252.977 298.7,255.644 291.5,253.5 Z"/></g>
<g><path style="opacity:1" fill="#060403" d="M 390.5,226.5 C 396.834,225.652 401.001,228.319 403,234.5C 404.745,241.564 403.245,247.731 398.5,253C 394.612,255.223 391.112,254.723 388,251.5C 382.795,242.46 383.628,234.126 390.5,226.5 Z"/></g>
<g><path style="opacity:1" fill="#f6b27e" d="M 229.5,235.5 C 230.825,239.445 231.492,243.778 231.5,248.5C 231.167,252.833 230.833,257.167 230.5,261.5C 221.613,253.179 221.28,244.512 229.5,235.5 Z"/></g>
<g><path style="opacity:1" fill="#f3b07d" d="M 458.5,235.5 C 463.933,238.017 466.6,242.35 466.5,248.5C 466.526,254.115 464.193,258.448 459.5,261.5C 458.502,252.859 458.169,244.192 458.5,235.5 Z"/></g>
<g><path style="opacity:1" fill="#e2a474" d="M 22.5,234.5 C 23.8218,243.342 23.8218,252.342 22.5,261.5C 11.9457,252.495 11.9457,243.495 22.5,234.5 Z"/></g>
<g><path style="opacity:1" fill="#ec6362" d="M 291.5,267.5 C 298.167,271.5 298.167,275.5 291.5,279.5C 281.745,283.659 272.078,283.492 262.5,279C 258.178,276.382 257.512,273.048 260.5,269C 270.601,263.642 280.935,263.142 291.5,267.5 Z"/></g>
<g><path style="opacity:1" fill="#ec6462" d="M 405.5,264.5 C 411.555,264.338 417.555,264.838 423.5,266C 426.249,267.123 428.749,268.623 431,270.5C 432.58,275.596 430.746,278.763 425.5,280C 416.828,283.332 408.161,283.332 399.5,280C 392.541,276.861 391.875,272.861 397.5,268C 400.401,267.125 403.068,265.958 405.5,264.5 Z"/></g>
<g><path style="opacity:1" fill="#070604" d="M 112.5,271.5 C 114.989,271.298 117.323,271.798 119.5,273C 125.647,284.919 134.647,287.919 146.5,282C 149.285,278.396 152.285,275.062 155.5,272C 161.248,270.874 164.581,273.208 165.5,279C 159.345,294.92 147.678,301.92 130.5,300C 118.98,297.143 111.313,290.143 107.5,279C 107.831,275.52 109.498,273.02 112.5,271.5 Z"/></g>
<g><path style="opacity:1" fill="#070504" d="M 320.5,271.5 C 322.989,271.298 325.323,271.798 327.5,273C 339.938,289.844 351.938,289.511 363.5,272C 371.55,271.051 374.717,274.551 373,282.5C 365.702,295.567 354.535,301.4 339.5,300C 330.871,298.11 324.037,293.61 319,286.5C 315.249,280.947 315.749,275.947 320.5,271.5 Z"/></g>
<g><path style="opacity:1" fill="#f6ad41" d="M 456.5,298.5 C 466.163,299.745 473.663,304.412 479,312.5C 486.861,325.91 491.361,340.243 492.5,355.5C 474.469,349.947 459.969,339.614 449,324.5C 448.333,323.167 448.333,321.833 449,320.5C 452.601,313.53 455.101,306.197 456.5,298.5 Z"/></g>
<g><path style="opacity:1" fill="#d3684b" d="M 221.5,312.5 C 244.546,310.477 266.713,313.81 288,322.5C 290.712,322.609 292.878,321.609 294.5,319.5C 298.457,322.122 302.124,325.122 305.5,328.5C 303.84,330.322 302.84,332.489 302.5,335C 306.836,342.67 310.003,350.836 312,359.5C 312.725,369.194 312.559,378.86 311.5,388.5C 287.681,386.732 266.681,378.232 248.5,363C 245.115,359.283 242.115,355.283 239.5,351C 236.97,349.578 234.303,349.245 231.5,350C 222.325,363.085 210.325,372.585 195.5,378.5C 196.296,353.548 204.963,331.548 221.5,312.5 Z"/></g>
<g><path style="opacity:1" fill="#a44b30" d="M 221.5,312.5 C 204.963,331.548 196.296,353.548 195.5,378.5C 183.407,383.691 170.74,387.024 157.5,388.5C 152.316,341.007 173.649,315.674 221.5,312.5 Z"/></g>
<g><path style="opacity:1" fill="#fab480" d="M 141.5,363.5 C 131.5,363.5 121.5,363.5 111.5,363.5C 110.812,372.105 113.478,379.438 119.5,385.5C 111.32,385.323 105.154,381.656 101,374.5C 99.6712,367.908 99.1712,361.241 99.5,354.5C 114.167,354.5 128.833,354.5 143.5,354.5C 142.833,357.5 142.167,360.5 141.5,363.5 Z"/></g>
<g><path style="opacity:1" fill="#f9b580" d="M 382.5,361.5 C 364.194,362.447 345.861,362.78 327.5,362.5C 327.167,359.833 326.833,357.167 326.5,354.5C 345.167,354.5 363.833,354.5 382.5,354.5C 382.5,356.833 382.5,359.167 382.5,361.5 Z"/></g>
<g><path style="opacity:1" fill="#d52f2f" d="M 86.5,379.5 C 82.3181,418.748 85.3181,457.415 95.5,495.5C 88.5,495.5 81.5,495.5 74.5,495.5C 74.8308,472.661 74.4975,449.994 73.5,427.5C 72.6987,424.428 70.6987,422.762 67.5,422.5C 56.6794,421.505 45.6794,421.172 34.5,421.5C 34.5,408.5 34.5,395.5 34.5,382.5C 37.1649,375.662 41.8315,370.495 48.5,367C 59.9047,361.254 71.9047,357.42 84.5,355.5C 84.0617,363.629 84.7284,371.629 86.5,379.5 Z"/></g>
<g><path style="opacity:1" fill="#0992a2" d="M 407.5,495.5 C 374.662,495.832 341.996,495.498 309.5,494.5C 320.464,482.342 325.464,468.009 324.5,451.5C 344.927,451.239 354.427,440.905 353,420.5C 349.727,410.226 342.894,403.726 332.5,401C 344.833,400.667 357.167,400.333 369.5,400C 390.79,392.957 400.124,378.124 397.5,355.5C 414.408,357.853 429.575,364.186 443,374.5C 444.333,376.5 445.667,378.5 447,380.5C 447.5,394.496 447.667,408.496 447.5,422.5C 435.495,422.333 423.495,422.5 411.5,423C 410.333,424.167 409.167,425.333 408,426.5C 407.5,449.498 407.333,472.498 407.5,495.5 Z"/></g>
<g><path style="opacity:1" fill="#f8cda1" d="M 382.5,361.5 C 383.25,374.698 377.25,382.698 364.5,385.5C 352.167,385.5 339.833,385.5 327.5,385.5C 327.5,384.167 327.5,382.833 327.5,381.5C 327.5,375.167 327.5,368.833 327.5,362.5C 345.861,362.78 364.194,362.447 382.5,361.5 Z"/></g>
<g><path style="opacity:1" fill="#fbcfa2" d="M 141.5,363.5 C 141.418,370.858 141.752,378.191 142.5,385.5C 134.833,385.5 127.167,385.5 119.5,385.5C 113.478,379.438 110.812,372.105 111.5,363.5C 121.5,363.5 131.5,363.5 141.5,363.5 Z"/></g>
<g><path style="opacity:1" fill="#facea1" d="M 202.5,495.5 C 197.657,486.807 194.491,477.473 193,467.5C 192.5,454.838 192.333,442.171 192.5,429.5C 196.691,431.503 199.858,430.503 202,426.5C 204.887,419.75 203.72,413.916 198.5,409C 196.402,408.322 194.402,408.489 192.5,409.5C 192.5,405.167 192.5,400.833 192.5,396.5C 208.348,390.905 222.348,382.238 234.5,370.5C 255.91,390.197 281.243,401.197 310.5,403.5C 310.698,423.851 310.198,444.184 309,464.5C 304.633,481.533 293.8,491.7 276.5,495C 251.776,496.596 227.11,496.763 202.5,495.5 Z"/></g>
<g><path style="opacity:1" fill="#ea6060" d="M 86.5,379.5 C 97.6292,397.735 113.963,404.902 135.5,401C 117.593,408.059 112.093,420.559 119,438.5C 124.996,447.748 133.496,452.081 144.5,451.5C 143.734,468.466 149.067,483.133 160.5,495.5C 138.833,495.5 117.167,495.5 95.5,495.5C 85.3181,457.415 82.3181,418.748 86.5,379.5 Z"/></g>
<g><path style="opacity:1" fill="#45392c" d="M 327.5,381.5 C 327.5,382.833 327.5,384.167 327.5,385.5C 339.833,385.5 352.167,385.5 364.5,385.5C 352.011,386.495 339.344,386.829 326.5,386.5C 326.216,384.585 326.549,382.919 327.5,381.5 Z"/></g>
<g><path style="opacity:1" fill="#fbb681" d="M 192.5,396.5 C 192.5,400.833 192.5,405.167 192.5,409.5C 187.278,416.23 187.278,422.897 192.5,429.5C 192.333,442.171 192.5,454.838 193,467.5C 194.491,477.473 197.657,486.807 202.5,495.5C 180.129,495.619 165.962,484.952 160,463.5C 158.448,443.986 158.281,424.486 159.5,405C 159.905,404.055 160.572,403.388 161.5,403C 171.999,401.534 182.332,399.367 192.5,396.5 Z"/></g>
<g><path style="opacity:1" fill="#070504" d="M 192.5,429.5 C 187.278,422.897 187.278,416.23 192.5,409.5C 194.402,408.489 196.402,408.322 198.5,409C 203.72,413.916 204.887,419.75 202,426.5C 199.858,430.503 196.691,431.503 192.5,429.5 Z"/></g>
<g><path style="opacity:1" fill="#080604" d="M 270.5,408.5 C 275.048,408.199 278.215,410.199 280,414.5C 281.409,420.316 280.242,425.483 276.5,430C 272.373,431.292 269.206,430.125 267,426.5C 264.236,419.663 265.402,413.663 270.5,408.5 Z"/></g>
<g><path style="opacity:1" fill="#f8b47f" d="M 137.5,415.5 C 139.5,415.5 141.5,415.5 143.5,415.5C 143.5,422.5 143.5,429.5 143.5,436.5C 134.732,436.565 130.565,432.232 131,423.5C 132.305,420.039 134.471,417.372 137.5,415.5 Z"/></g>
<g><path style="opacity:1" fill="#fbb680" d="M 325.5,415.5 C 336.183,416.006 340.016,421.34 337,431.5C 334.181,435.493 330.347,437.16 325.5,436.5C 325.5,429.5 325.5,422.5 325.5,415.5 Z"/></g>
<g><path style="opacity:1" fill="#8e2020" d="M 34.5,382.5 C 34.5,395.5 34.5,408.5 34.5,421.5C 45.6794,421.172 56.6794,421.505 67.5,422.5C 56.1667,422.5 44.8333,422.5 33.5,422.5C 33.1711,408.99 33.5044,395.656 34.5,382.5 Z"/></g>
<g><path style="opacity:1" fill="#8f2a29" d="M 73.5,427.5 C 74.4975,449.994 74.8308,472.661 74.5,495.5C 81.5,495.5 88.5,495.5 95.5,495.5C 117.167,495.5 138.833,495.5 160.5,495.5C 132.241,496.499 103.241,496.833 73.5,496.5C 73.5,473.5 73.5,450.5 73.5,427.5 Z"/></g>
<g><path style="opacity:1" fill="#fdb782" d="M 58.5,437.5 C 58.8301,455.674 58.4968,473.674 57.5,491.5C 45.1262,483.585 37.6262,472.252 35,457.5C 34.0482,450.864 33.5482,444.197 33.5,437.5C 41.8333,437.5 50.1667,437.5 58.5,437.5 Z"/></g>
<g><path style="opacity:1" fill="#6a4d36" d="M 58.5,437.5 C 59.8275,455.671 59.8275,474.004 58.5,492.5C 57.8933,492.376 57.56,492.043 57.5,491.5C 58.4968,473.674 58.8301,455.674 58.5,437.5 Z"/></g>
<g><path style="opacity:1" fill="#fab580" d="M 422.5,437.5 C 431.167,437.5 439.833,437.5 448.5,437.5C 449.13,453.084 445.297,467.417 437,480.5C 432.922,485.249 428.255,489.249 423,492.5C 422.5,474.17 422.333,455.836 422.5,437.5 Z"/></g>
<g><path style="opacity:1" fill="#070504" d="M 215.5,442.5 C 217.199,442.34 218.866,442.506 220.5,443C 223.177,445.345 225.51,448.012 227.5,451C 231.639,453.856 235.972,454.19 240.5,452C 243.069,449.521 245.402,446.854 247.5,444C 255.66,441.822 259.16,444.989 258,453.5C 251.852,464.824 242.352,469.658 229.5,468C 217.772,465.294 211.606,458.127 211,446.5C 212.397,444.93 213.897,443.596 215.5,442.5 Z"/></g>
<g><path style="opacity:1" fill="#066b77" d="M 309.5,494.5 C 341.996,495.498 374.662,495.832 407.5,495.5C 374.336,496.664 341.003,496.831 307.5,496C 308.044,495.283 308.711,494.783 309.5,494.5 Z"/></g>
</svg>
